# xmcd
#
# Track frame offsets: 
#        150
#        19093
#        31155
#        62778
#        76243
#        90850
#        107785
#        123435
#        153105
#        169325
#        184978
#
# Disc length: 2642 seconds
#
# Revision: 0
# Processed by: cddbd v1.5.2PL0 Copyright (c) Steve Scherf et al.
# Submitted via: ExactAudioCopy v0.99pb5
#
DISCID=7e0a500b
DTITLE=The klem blues band - Make my day
DYEAR=1992
DGENRE=Blues
TTITLE0=Going to chigaco
TTITLE1=Gonna Dig A Hole
TTITLE2=If I Could Only
TTITLE3=You Can Make My Day
TTITLE4=Working Man
TTITLE5=If That's What You Want
TTITLE6=Barbed Wire
TTITLE7=Without You
TTITLE8=The Loner
TTITLE9=You Don't Love Me
TTITLE10=I'm Lonley
EXTD=
EXTT0=
EXTT1=
EXTT2=
EXTT3=
EXTT4=
EXTT5=
EXTT6=
EXTT7=
EXTT8=
EXTT9=
EXTT10=
PLAYORDER=
